STARTFONT 2.1
FONT -DEC-Terminal-Medium-R-Double Wide--25-180-100-100-C-300-iso8859-5
SIZE 18 100 100
FONTBOUNDINGBOX 30 25 0 -5

STARTPROPERTIES 24
FOUNDRY "Monotype"
FAMILY_NAME "VT"
WEIGHT_NAME "Regular"
SLANT "R"
SETWIDTH_NAME "Double Wide"
ADD_STYLE_NAME ""
PIXEL_SIZE 25
POINT_SIZE 180
RESOLUTION_X 100
RESOLUTION_Y 100
SPACING "C"
AVERAGE_WIDTH 300
CHARSET_REGISTRY "iso8859"
CHARSET_ENCODING "5"
FACE_NAME "VT Double Wide ISO Latin Cyrillic"
_DEC_DEVICE_FONTNAMES "PS=vt-dblwide-isolatincyrillic"
COPYRIGHT "Copyright (c) 1993 Monotype Typography Ltd."
CAP_HEIGHT 14
X_HEIGHT 10
WEIGHT 10
QUAD_WIDTH 30
DEFAULT_CHAR 160
FONT_DESCENT 5
FONT_ASCENT 20
ENDPROPERTIES

CHARS 191

STARTCHAR space
ENCODING 32
SWIDTH 1136 0
DWIDTH 30 0
BBX 30 25 0 -5
BITMAP
00000000
00000000
00000000
00000000
00000000
00000000
00000000
00000000
00000000
00000000
00000000
00000000
00000000
00000000
00000000
00000000
00000000
00000000
00000000
00000000
00000000
00000000
00000000
00000000
00000000
ENDCHAR

STARTCHAR exclam
ENCODING 33
SWIDTH 1136 0
DWIDTH 30 0
BBX 30 25 0 -5
BITMAP
00000000
00000000
00000000
00000000
00000000
001F0000
001F0000
001F0000
001F0000
001F0000
001F0000
001F0000
001F0000
001F0000
00000000
00000000
001F0000
003F8000
003F8000
001F0000
00000000
00000000
00000000
00000000
00000000
ENDCHAR

STARTCHAR quotedbl
ENCODING 34
SWIDTH 1136 0
DWIDTH 30 0
BBX 30 25 0 -5
BITMAP
00000000
00000000
01F03E00
01F03E00
01F03E00
01F03E00
01F03E00
01F03E00
01F03E00
01F03E00
01F03E00
00000000
00000000
00000000
00000000
00000000
00000000
00000000
00000000
00000000
00000000
00000000
00000000
00000000
00000000
ENDCHAR

STARTCHAR numbersign
ENCODING 35
SWIDTH 1136 0
DWIDTH 30 0
BBX 30 25 0 -5
BITMAP
00000000
00000000
00000000
00000000
00000000
01F03E00
01F03E00
01F03E00
01F03E00
01F03E00
01F03E00
7FFFFFF8
01F03E00
01F03E00
01F03E00
01F03E00
7FFFFFF8
01F03E00
01F03E00
01F03E00
01F03E00
01F03E00
01F03E00
00000000
00000000
ENDCHAR

STARTCHAR dollar
ENCODING 36
SWIDTH 1136 0
DWIDTH 30 0
BBX 30 25 0 -5
BITMAP
00000000
00000000
00000000
00078000
00078000
00078000
00FFDF00
03E07F00
07C03F00
07C01F00
07E00000
03FC0000
00FFFC00
0003FF00
00001F00
00000F80
07C00F80
07E00F00
07F01F00
07DFFC00
00078000
00078000
00078000
00078000
00000000
ENDCHAR

STARTCHAR percent
ENCODING 37
SWIDTH 1136 0
DWIDTH 30 0
BBX 30 25 0 -5
BITMAP
00000000
00000000
00000000
00000000
00000000
07F80000
0E1C0000
3C0F0000
3C0F01C0
3C0F0FC0
0E1C3E00
07F8F000
00078000
003C7F80
03F0E1C0
3FC3C0F0
3C03C0F0
0003C0F0
0000E1C0
00007F80
00000000
00000000
00000000
00000000
00000000
ENDCHAR

STARTCHAR ampersand
ENCODING 38
SWIDTH 1136 0
DWIDTH 30 0
BBX 30 25 0 -5
BITMAP
00000000
00000000
00000000
00000000
00000000
003FDE00
00F83E00
00F03E00
00F00000
00F00000
00380000
003C0000
01FFBF80
01EF9E00
03E7DC00
03E3FC00
03E0F000
03E07C00
03F0FE00
00FF9F80
00000000
00000000
00000000
00000000
00000000
ENDCHAR

STARTCHAR quoteright
ENCODING 39
SWIDTH 1136 0
DWIDTH 30 0
BBX 30 25 0 -5
BITMAP
00000000
00000000
0007F000
0007E000
000F8000
001F8000
001F0000
003C0000
00380000
00000000
00000000
00000000
00000000
00000000
00000000
00000000
00000000
00000000
00000000
00000000
00000000
00000000
00000000
00000000
00000000
ENDCHAR

STARTCHAR parenleft
ENCODING 40
SWIDTH 1136 0
DWIDTH 30 0
BBX 30 25 0 -5
BITMAP
00000000
00000000
00000000
00006000
0000E000
0001C000
0003C000
0007C000
00078000
000F8000
000F0000
001F0000
001F0000
001F0000
001F0000
001F0000
000F0000
000F8000
00078000
0007C000
0003C000
0000E000
00007000
00003000
00000000
ENDCHAR

STARTCHAR parenright
ENCODING 41
SWIDTH 1136 0
DWIDTH 30 0
BBX 30 25 0 -5
BITMAP
00000000
00000000
00000000
00180000
001C0000
000E0000
000F0000
000F8000
00078000
0007C000
0003C000
0003E000
0003E000
0003E000
0003E000
0003E000
0003C000
0007C000
00078000
000F8000
000F0000
001C0000
00380000
00300000
00000000
ENDCHAR

STARTCHAR asterisk
ENCODING 42
SWIDTH 1136 0
DWIDTH 30 0
BBX 30 25 0 -5
BITMAP
00000000
00000000
00000000
00000000
00000000
00000000
00000000
00078000
00078000
07C78F80
07E79F80
01FFFE00
003FF000
001FE000
001FE000
00F87C00
00F03C00
00F03C00
00000000
00000000
00000000
00000000
00000000
00000000
00000000
ENDCHAR

STARTCHAR plus
ENCODING 43
SWIDTH 1136 0
DWIDTH 30 0
BBX 30 25 0 -5
BITMAP
00000000
00000000
00000000
00000000
00000000
00000000
000F8000
000F8000
000F8000
000F8000
000F8000
000F8000
0FFFFFC0
0FFFFFC0
000F8000
000F8000
000F8000
000F8000
000F8000
000F8000
00000000
00000000
00000000
00000000
00000000
ENDCHAR

STARTCHAR comma
ENCODING 44
SWIDTH 1136 0
DWIDTH 30 0
BBX 30 25 0 -5
BITMAP
00000000
00000000
00000000
00000000
00000000
00000000
00000000
00000000
00000000
00000000
00000000
00000000
00000000
00000000
00000000
00000000
000FE000
000FC000
001FC000
001F8000
001F0000
003F0000
003C0000
00380000
00000000
ENDCHAR

STARTCHAR minus
ENCODING 45
SWIDTH 1136 0
DWIDTH 30 0
BBX 30 25 0 -5
BITMAP
00000000
00000000
00000000
00000000
00000000
00000000
00000000
00000000
00000000
00000000
00000000
00000000
0FFFFFC0
0FFFFFC0
00000000
00000000
00000000
00000000
00000000
00000000
00000000
00000000
00000000
00000000
00000000
ENDCHAR

STARTCHAR period
ENCODING 46
SWIDTH 1136 0
DWIDTH 30 0
BBX 30 25 0 -5
BITMAP
00000000
00000000
00000000
00000000
00000000
00000000
00000000
00000000
00000000
00000000
00000000
00000000
00000000
00000000
00000000
00000000
001FC000
003FE000
003FE000
001FC000
00000000
00000000
00000000
00000000
00000000
ENDCHAR

STARTCHAR slash
ENCODING 47
SWIDTH 1136 0
DWIDTH 30 0
BBX 30 25 0 -5
BITMAP
00000000
00000000
00000000
000001C0
000003C0
00000F80
00001F00
00001E00
00003C00
00007000
0000F000
0003E000
0003C000
00078000
000F0000
001C0000
003C0000
00F80000
00F00000
01E00000
03E00000
07C00000
0F000000
00000000
00000000
ENDCHAR

STARTCHAR zero
ENCODING 48
SWIDTH 1136 0
DWIDTH 30 0
BBX 30 25 0 -5
BITMAP
00000000
00000000
00000000
00000000
00000000
001FE000
00F87C00
01F03E00
03E01F00
03E01F00
07C00F80
07C00F80
07C00F80
07C00F80
07C00F80
03E01F00
03E01F00
01F03E00
00F87C00
001FE000
00000000
00000000
00000000
00000000
00000000
ENDCHAR

STARTCHAR one
ENCODING 49
SWIDTH 1136 0
DWIDTH 30 0
BBX 30 25 0 -5
BITMAP
00000000
00000000
00000000
00000000
00000000
001F8000
07FF8000
000F8000
000F8000
000F8000
000F8000
000F8000
000F8000
000F8000
000F8000
000F8000
000F8000
000F8000
000F8000
07FFFF80
00000000
00000000
00000000
00000000
00000000
ENDCHAR

STARTCHAR two
ENCODING 50
SWIDTH 1136 0
DWIDTH 30 0
BBX 30 25 0 -5
BITMAP
00000000
00000000
00000000
00000000
00000000
07FFC000
1F80F800
1F807C00
00007C00
00007C00
00007C00
0000F800
0001F000
0007C000
001F0000
003E0000
00F80000
03E00F80
07C00F80
07FFFF80
00000000
00000000
00000000
00000000
00000000
ENDCHAR

STARTCHAR three
ENCODING 51
SWIDTH 1136 0
DWIDTH 30 0
BBX 30 25 0 -5
BITMAP
00000000
00000000
00000000
00000000
00000000
00FFFC00
03F01F00
03F00F80
00000F80
00000F80
00000F80
00001F00
001FFC00
00001F00
00000F80
00000F80
00000F80
03F00F80
03F01F00
00FFFC00
00000000
00000000
00000000
00000000
00000000
ENDCHAR

STARTCHAR four
ENCODING 52
SWIDTH 1136 0
DWIDTH 30 0
BBX 30 25 0 -5
BITMAP
00000000
00000000
00000000
00000000
00000000
0007F000
000FF000
0018F000
0030F000
00E0F000
01C0F000
0300F000
0600F000
0C00F000
0FFFFF80
0FFFFF80
0000F000
0000F000
0000F000
001FFF80
00000000
00000000
00000000
00000000
00000000
ENDCHAR

STARTCHAR five
ENCODING 53
SWIDTH 1136 0
DWIDTH 30 0
BBX 30 25 0 -5
BITMAP
00000000
00000000
00000000
00000000
00000000
01FFFF00
01E00000
01E00000
01E00000
01E00000
01E00000
01FFFC00
01F01F00
00001F80
00001F80
00001F80
00001F80
07F01F00
07F03E00
01FFF000
00000000
00000000
00000000
00000000
00000000
ENDCHAR

STARTCHAR six
ENCODING 54
SWIDTH 1136 0
DWIDTH 30 0
BBX 30 25 0 -5
BITMAP
00000000
00000000
00000000
00000000
00000000
0003FC00
000F0000
00380000
00F00000
01F00000
01E00000
03E7FC00
03F81F00
03F00F00
03E00F80
03E00F80
03E00F80
01F00F00
01F81F00
003FFC00
00000000
00000000
00000000
00000000
00000000
ENDCHAR

STARTCHAR seven
ENCODING 55
SWIDTH 1136 0
DWIDTH 30 0
BBX 30 25 0 -5
BITMAP
00000000
00000000
00000000
00000000
00000000
03FFFFC0
03E00FC0
03E00F80
00001F00
00001F00
00003E00
00003E00
00007C00
0000FC00
0000F000
0003E000
0007E000
0007C000
000FC000
001F8000
00000000
00000000
00000000
00000000
00000000
ENDCHAR

STARTCHAR eight
ENCODING 56
SWIDTH 1136 0
DWIDTH 30 0
BBX 30 25 0 -5
BITMAP
00000000
00000000
00000000
00000000
00000000
00000000
003FF000
01F03E00
03E01F00
03E01F00
03E01F00
01F03E00
003FF000
01F03E00
03E01F00
03E01F00
03E01F00
03E01F00
01F03E00
003FF000
00000000
00000000
00000000
00000000
00000000
ENDCHAR

STARTCHAR nine
ENCODING 57
SWIDTH 1136 0
DWIDTH 30 0
BBX 30 25 0 -5
BITMAP
00000000
00000000
00000000
00000000
00000000
003FF000
01F03E00
03E01E00
03E01F00
03E01F00
03E01F00
03E01F00
01F07F00
003F9F00
00001F00
00003E00
00003E00
00007C00
0003E000
01FF8000
00000000
00000000
00000000
00000000
00000000
ENDCHAR

STARTCHAR colon
ENCODING 58
SWIDTH 1136 0
DWIDTH 30 0
BBX 30 25 0 -5
BITMAP
00000000
00000000
00000000
00000000
00000000
00000000
00000000
00000000
001FE000
003FF000
003FF000
001FE000
00000000
00000000
00000000
00000000
001FE000
003FF000
003FF000
001FE000
00000000
00000000
00000000
00000000
00000000
ENDCHAR

STARTCHAR semicolon
ENCODING 59
SWIDTH 1136 0
DWIDTH 30 0
BBX 30 25 0 -5
BITMAP
00000000
00000000
00000000
00000000
00000000
00000000
00000000
00000000
0007F800
000FFC00
000FFC00
0007F800
00000000
00000000
00000000
00000000
0007F000
0007E000
000FE000
000FC000
000F0000
003F0000
003E0000
003C0000
00000000
ENDCHAR

STARTCHAR less
ENCODING 60
SWIDTH 1136 0
DWIDTH 30 0
BBX 30 25 0 -5
BITMAP
00000000
00000000
00000000
00000000
00000000
00000000
00000000
000001F0
00007FF0
0007FE00
00FFC000
03F80000
0F000000
03F80000
00FFC000
0007FE00
00007FF0
000001F0
00000000
00000000
00000000
00000000
00000000
00000000
00000000
ENDCHAR

STARTCHAR equal
ENCODING 61
SWIDTH 1136 0
DWIDTH 30 0
BBX 30 25 0 -5
BITMAP
00000000
00000000
00000000
00000000
00000000
00000000
00000000
00000000
00000000
0FFFFFC0
0FFFFFC0
00000000
00000000
00000000
00000000
0FFFFFC0
0FFFFFC0
00000000
00000000
00000000
00000000
00000000
00000000
00000000
00000000
ENDCHAR

STARTCHAR greater
ENCODING 62
SWIDTH 1136 0
DWIDTH 30 0
BBX 30 25 0 -5
BITMAP
00000000
00000000
00000000
00000000
00000000
00000000
00000000
3E000000
3FF80000
01FF8000
000FFC00
00007F00
000003C0
00007F00
000FFC00
01FF8000
3FF80000
3F000000
00000000
00000000
00000000
00000000
00000000
00000000
00000000
ENDCHAR

STARTCHAR question
ENCODING 63
SWIDTH 1136 0
DWIDTH 30 0
BBX 30 25 0 -5
BITMAP
00000000
00000000
00000000
00000000
03FFFF00
0FC01F80
0FC00FC0
00000FC0
00001F80
00003F00
0000FE00
000FE000
003F0000
003E0000
00000000
00000000
007E0000
01FF0000
01FF0000
007E0000
00000000
00000000
00000000
00000000
00000000
ENDCHAR

STARTCHAR at
ENCODING 64
SWIDTH 1136 0
DWIDTH 30 0
BBX 30 25 0 -5
BITMAP
00000000
00000000
00000000
00FFF000
03E01E00
0F000F00
0F000F80
3E000380
3E0003C0
7C07FFC0
7C1F83C0
7C1F03C0
7C3F03C0
7C3F03C0
7C1F03C0
7C1F83C0
3E07FFF8
3E000000
0F000000
0F000000
03E01F80
00FFFF80
00000000
00000000
00000000
ENDCHAR

STARTCHAR A
ENCODING 65
SWIDTH 1136 0
DWIDTH 30 0
BBX 30 25 0 -5
BITMAP
00000000
00000000
00000000
00000000
00000000
0007C000
000FE000
000FF000
001CF000
00387C00
00383E00
00F03E00
01E01F00
03E01F80
03C00F80
07FFFFC0
07000FC0
0E0003F0
3E0003F0
FFF01FFC
00000000
00000000
00000000
00000000
00000000
ENDCHAR

STARTCHAR B
ENCODING 66
SWIDTH 1136 0
DWIDTH 30 0
BBX 30 25 0 -5
BITMAP
00000000
00000000
00000000
00000000
00000000
3FFFFE00
03E01F00
03E00F80
03E00F80
03E00F80
03E00F00
03E01E00
03FFFF80
03E00FC0
03E001F0
03E001F0
03E001F0
03E003F0
03E01FC0
3FFFFF00
00000000
00000000
00000000
00000000
00000000
ENDCHAR

STARTCHAR C
ENCODING 67
SWIDTH 1136 0
DWIDTH 30 0
BBX 30 25 0 -5
BITMAP
00000000
00000000
00000000
00000000
00000000
003FF0F0
03F03EF0
07C00FF0
0FC001F0
0F0000F0
3E0000F0
3E000000
3E000000
3E000000
3E000000
0F000000
0FC00000
07C003F0
03F00FC0
003FFF00
00000000
00000000
00000000
00000000
00000000
ENDCHAR

STARTCHAR D
ENCODING 68
SWIDTH 1136 0
DWIDTH 30 0
BBX 30 25 0 -5
BITMAP
00000000
00000000
00000000
00000000
00000000
3FFFFC00
03E01F00
03E003C0
03E003C0
03E001F0
03E001F0
03E001F0
03E001F0
03E001F0
03E001F0
03E001F0
03E003C0
03E003C0
03E01F00
3FFFFC00
00000000
00000000
00000000
00000000
00000000
ENDCHAR

STARTCHAR E
ENCODING 69
SWIDTH 1136 0
DWIDTH 30 0
BBX 30 25 0 -5
BITMAP
00000000
00000000
00000000
00000000
00000000
7FFFFFC0
01F000C0
01F000C0
01F000C0
01F03000
01F03000
01F03000
01FFF000
01F03000
01F03000
01F000C0
01F000C0
01F000C0
01F000C0
7FFFFFC0
00000000
00000000
00000000
00000000
00000000
ENDCHAR

STARTCHAR F
ENCODING 70
SWIDTH 1136 0
DWIDTH 30 0
BBX 30 25 0 -5
BITMAP
00000000
00000000
00000000
00000000
00000000
3FFFFFF0
00F80070
00F80070
00F80070
00F81C00
00F81C00
00F81C00
00FFFC00
00F81C00
00F81C00
00F80000
00F80000
00F80000
00F80000
3FFFE000
00000000
00000000
00000000
00000000
00000000
ENDCHAR

STARTCHAR G
ENCODING 71
SWIDTH 1136 0
DWIDTH 30 0
BBX 30 25 0 -5
BITMAP
00000000
00000000
00000000
00000000
00000000
01FFC380
07C0FB80
1E001F80
1E000780
7C000380
7C000380
7C000000
7C000000
7C000000
7C01FFF0
7C001F00
1E001F00
1F801F00
07E03F00
01FFFC00
00000000
00000000
00000000
00000000
00000000
ENDCHAR

STARTCHAR H
ENCODING 72
SWIDTH 1136 0
DWIDTH 30 0
BBX 30 25 0 -5
BITMAP
00000000
00000000
00000000
00000000
00000000
7FF87FF8
07C00F80
07C00F80
07C00F80
07C00F80
07C00F80
07C00F80
07FFFF80
07C00F80
07C00F80
07C00F80
07C00F80
07C00F80
07C00F80
7FF87FF8
00000000
00000000
00000000
00000000
00000000
ENDCHAR

STARTCHAR I
ENCODING 73
SWIDTH 1136 0
DWIDTH 30 0
BBX 30 25 0 -5
BITMAP
00000000
00000000
00000000
00000000
00000000
07FFFF00
000F8000
000F8000
000F8000
000F8000
000F8000
000F8000
000F8000
000F8000
000F8000
000F8000
000F8000
000F8000
000F8000
07FFFF00
00000000
00000000
00000000
00000000
00000000
ENDCHAR

STARTCHAR J
ENCODING 74
SWIDTH 1136 0
DWIDTH 30 0
BBX 30 25 0 -5
BITMAP
00000000
00000000
00000000
00000000
00000000
00FFFFF0
00007C00
00007C00
00007C00
00007C00
00007C00
00007C00
00007C00
0C007C00
0C007C00
0C007C00
0C007C00
0E007000
0F00F000
03FFC000
00000000
00000000
00000000
00000000
00000000
ENDCHAR

STARTCHAR K
ENCODING 75
SWIDTH 1136 0
DWIDTH 30 0
BBX 30 25 0 -5
BITMAP
00000000
00000000
00000000
00000000
00000000
3FFC7FF0
03E01F80
03E01E00
03E07C00
03E0E000
03E38000
03EF8000
03FFC000
03E7E000
03E0F000
03E07C00
03E07E00
03E03F00
03E01F80
3FFC1FF0
00000000
00000000
00000000
00000000
00000000
ENDCHAR

STARTCHAR L
ENCODING 76
SWIDTH 1136 0
DWIDTH 30 0
BBX 30 25 0 -5
BITMAP
00000000
00000000
00000000
00000000
00000000
3FFFE000
00F80000
00F80000
00F80000
00F80000
00F80000
00F80000
00F80000
00F80000
00F80000
00F80070
00F80070
00F80070
00F80070
3FFFFFF0
00000000
00000000
00000000
00000000
00000000
ENDCHAR

STARTCHAR M
ENCODING 77
SWIDTH 1136 0
DWIDTH 30 0
BBX 30 25 0 -5
BITMAP
00000000
00000000
00000000
00000000
00000000
FFC00FFC
3FC00FF0
3FE01FF0
3EE01DF0
3E3031F0
3E3031F0
3E1861F0
3E1861F0
3E0CC1F0
3E0FC1F0
3E0781F0
3E0781F0
3E0001F0
3E0001F0
FFE01FFC
00000000
00000000
00000000
00000000
00000000
ENDCHAR

STARTCHAR N
ENCODING 78
SWIDTH 1136 0
DWIDTH 30 0
BBX 30 25 0 -5
BITMAP
00000000
00000000
00000000
00000000
00000000
7FE07FF8
07F00F80
07F00F80
07D80F80
07CC0F80
07C70F80
07C70F80
07C38F80
07C0CF80
07C0CF80
07C06F80
07C03F80
07C00F80
07C00F80
7FFC0F80
00000000
00000000
00000000
00000000
00000000
ENDCHAR

STARTCHAR O
ENCODING 79
SWIDTH 1136 0
DWIDTH 30 0
BBX 30 25 0 -5
BITMAP
00000000
00000000
00000000
00000000
00000000
00FFFC00
03E01F00
0F0003C0
0F0003C0
3E0001F0
3E0001F0
3E0001F0
3E0001F0
3E0001F0
3E0001F0
3E0001F0
0F0003C0
0F0003C0
03E01F00
00FFFC00
00000000
00000000
00000000
00000000
00000000
ENDCHAR

STARTCHAR P
ENCODING 80
SWIDTH 1136 0
DWIDTH 30 0
BBX 30 25 0 -5
BITMAP
00000000
00000000
00000000
00000000
00000000
3FFFFF80
00F803C0
00F801F0
00F801F0
00F801F0
00F801F0
00F801F0
00F803C0
00FFFF80
00F80000
00F80000
00F80000
00F80000
00F80000
3FFFF000
00000000
00000000
00000000
00000000
00000000
ENDCHAR

STARTCHAR Q
ENCODING 81
SWIDTH 1136 0
DWIDTH 30 0
BBX 30 25 0 -5
BITMAP
00000000
00000000
00000000
00000000
00000000
00FFF000
03E03E00
0F000F80
0F000F80
3E0003C0
3E0003C0
3E0003C0
3E0003C0
3E0003C0
3E0003C0
3E0003C0
0F000F80
0F000F80
03E03E00
00FFF000
00780000
00600000
007F8070
03FFFFF0
03E0FFE0
ENDCHAR

STARTCHAR R
ENCODING 82
SWIDTH 1136 0
DWIDTH 30 0
BBX 30 25 0 -5
BITMAP
00000000
00000000
00000000
00000000
00000000
7FFFFF00
07C01F80
07C003C0
07C003C0
07C003C0
07C00F80
07C03F00
07FFFC00
07C07E00
07C03E00
07C01F00
07C01F80
07C00F80
07C00FC0
7FF003F8
00000000
00000000
00000000
00000000
00000000
ENDCHAR

STARTCHAR S
ENCODING 83
SWIDTH 1136 0
DWIDTH 30 0
BBX 30 25 0 -5
BITMAP
00000000
00000000
00000000
00000000
00000000
01FFDF00
07E07F00
0FC03F00
0F801F00
0F800000
0FC00000
07FF8000
01FFFC00
0001FF00
00001F80
0F800780
0F800780
0FC01F80
0FE07F00
0E7FFC00
00000000
00000000
00000000
00000000
00000000
ENDCHAR

STARTCHAR T
ENCODING 84
SWIDTH 1136 0
DWIDTH 30 0
BBX 30 25 0 -5
BITMAP
00000000
00000000
00000000
00000000
00000000
7FFFFFF0
780F80F0
780F80F0
780F80F0
780F80F0
000F8000
000F8000
000F8000
000F8000
000F8000
000F8000
000F8000
000F8000
000F8000
01FFFC00
00000000
00000000
00000000
00000000
00000000
ENDCHAR

STARTCHAR U
ENCODING 85
SWIDTH 1136 0
DWIDTH 30 0
BBX 30 25 0 -5
BITMAP
00000000
00000000
00000000
00000000
00000000
7FF87FF8
07C00F80
07C00F80
07C00F80
07C00F80
07C00F80
07C00F80
07C00F80
07C00F80
07C00F80
07C00F80
07C00F80
07C00F80
03E01F00
00FFFE00
00000000
00000000
00000000
00000000
00000000
ENDCHAR

STARTCHAR V
ENCODING 86
SWIDTH 1136 0
DWIDTH 30 0
BBX 30 25 0 -5
BITMAP
00000000
00000000
00000000
00000000
00000000
FFE01FFC
3F0000F0
0F0001C0
0FC001C0
07C00380
03E00F00
01E00F00
01F01E00
00F83C00
00383C00
003C7000
001F6000
000FE000
000FC000
00078000
00000000
00000000
00000000
00000000
00000000
ENDCHAR

STARTCHAR W
ENCODING 87
SWIDTH 1136 0
DWIDTH 30 0
BBX 30 25 0 -5
BITMAP
00000000
00000000
00000000
00000000
00000000
FFF03FFC
0F0001F0
0F0001F0
0F0001F0
0F0381F0
0F0381F0
0F07C1F0
070FC1C0
070CE1C0
071C71C0
073871C0
07303DC0
03E01F80
03E01F80
03C00F80
00000000
00000000
00000000
00000000
00000000
ENDCHAR

STARTCHAR X
ENCODING 88
SWIDTH 1136 0
DWIDTH 30 0
BBX 30 25 0 -5
BITMAP
00000000
00000000
00000000
00000000
00000000
7FFC3FF0
07F00F00
01F81E00
00FC3C00
003F7000
001FE000
000FC000
000FE000
001FF000
003CFC00
00F87E00
01F03F00
03E01F80
07C00FC0
7FF01FF8
00000000
00000000
00000000
00000000
00000000
ENDCHAR

STARTCHAR Y
ENCODING 89
SWIDTH 1136 0
DWIDTH 30 0
BBX 30 25 0 -5
BITMAP
00000000
00000000
00000000
00000000
00000000
3FFC0FFC
03F003E0
01F803C0
00FC0780
007E0F00
003F1C00
000FF800
0007F000
0003E000
0003E000
0003E000
0003E000
0003E000
0003E000
007FFF00
00000000
00000000
00000000
00000000
00000000
ENDCHAR

STARTCHAR Z
ENCODING 90
SWIDTH 1136 0
DWIDTH 30 0
BBX 30 25 0 -5
BITMAP
00000000
00000000
00000000
00000000
00000000
07FFFF80
06007E00
0600FC00
0601F800
0003F000
0007E000
000FC000
001F8000
003F0000
007E0000
00FC0000
01F800C0
03F000C0
07E000C0
07FFFFC0
00000000
00000000
00000000
00000000
00000000
ENDCHAR

STARTCHAR bracketleft
ENCODING 91
SWIDTH 1136 0
DWIDTH 30 0
BBX 30 25 0 -5
BITMAP
00000000
00000000
00000000
003FF000
003C0000
003C0000
003C0000
003C0000
003C0000
003C0000
003C0000
003C0000
003C0000
003C0000
003C0000
003C0000
003C0000
003C0000
003C0000
003C0000
003C0000
003C0000
003FF000
00000000
00000000
ENDCHAR

STARTCHAR backslash
ENCODING 92
SWIDTH 1136 0
DWIDTH 30 0
BBX 30 25 0 -5
BITMAP
00000000
00000000
00000000
7C000000
3E000000
0F000000
07C00000
03C00000
01E00000
00F00000
00380000
001C0000
001F0000
000F0000
00078000
0003C000
0000E000
00007000
00003C00
00003C00
00001E00
00000F00
00000F80
00000000
00000000
ENDCHAR

STARTCHAR bracketright
ENCODING 93
SWIDTH 1136 0
DWIDTH 30 0
BBX 30 25 0 -5
BITMAP
00000000
00000000
00000000
003FF000
0000F000
0000F000
0000F000
0000F000
0000F000
0000F000
0000F000
0000F000
0000F000
0000F000
0000F000
0000F000
0000F000
0000F000
0000F000
0000F000
0000F000
0000F000
003FF000
00000000
00000000
ENDCHAR

STARTCHAR asciicircum
ENCODING 94
SWIDTH 1136 0
DWIDTH 30 0
BBX 30 25 0 -5
BITMAP
00000000
00000000
00000000
00000000
00000000
00000000
00000000
00000000
00000000
0007C000
000FE000
001FF000
003C7C00
00F83E00
01F01F00
01E00F00
00000000
00000000
00000000
00000000
00000000
00000000
00000000
00000000
00000000
ENDCHAR

STARTCHAR underscore
ENCODING 95
SWIDTH 1136 0
DWIDTH 30 0
BBX 30 25 0 -5
BITMAP
00000000
00000000
00000000
00000000
00000000
00000000
00000000
00000000
00000000
00000000
00000000
00000000
00000000
00000000
00000000
00000000
00000000
00000000
FFFFFFFC
FFFFFFFC
00000000
00000000
00000000
00000000
00000000
ENDCHAR

STARTCHAR quoteleft
ENCODING 96
SWIDTH 1136 0
DWIDTH 30 0
BBX 30 25 0 -5
BITMAP
00000000
00000000
01FC0000
00FF0000
003F8000
000F8000
0007C000
0003E000
0000F000
00000000
00000000
00000000
00000000
00000000
00000000
00000000
00000000
00000000
00000000
00000000
00000000
00000000
00000000
00000000
00000000
ENDCHAR

STARTCHAR a
ENCODING 97
SWIDTH 1136 0
DWIDTH 30 0
BBX 30 25 0 -5
BITMAP
00000000
00000000
00000000
00000000
00000000
00000000
00000000
00000000
03FFFC00
0FC01F00
00000F00
00000F80
01FFFF80
07E01F80
0FC00F80
0FC00F80
0FC00F80
0FC01F80
07E07F80
03FFCFF0
00000000
00000000
00000000
00000000
00000000
ENDCHAR

STARTCHAR b
ENCODING 98
SWIDTH 1136 0
DWIDTH 30 0
BBX 30 25 0 -5
BITMAP
00000000
00000000
00000000
3FE00000
03E00000
03E00000
03E00000
03E00000
03E7FF00
03FC1FC0
03F001C0
03E001F0
03E001F0
03E001F0
03E001F0
03E001F0
03E001F0
03F003C0
03FC1FC0
3FE7FF00
00000000
00000000
00000000
00000000
00000000
ENDCHAR

STARTCHAR c
ENCODING 99
SWIDTH 1136 0
DWIDTH 30 0
BBX 30 25 0 -5
BITMAP
00000000
00000000
00000000
00000000
00000000
00000000
00000000
00000000
007FF980
03E03F80
0F800380
0F800180
0F000180
0F000000
0F000000
0F000000
07C00000
07C00780
03F01F80
01FFFE00
00000000
00000000
00000000
00000000
00000000
ENDCHAR

STARTCHAR d
ENCODING 100
SWIDTH 1136 0
DWIDTH 30 0
BBX 30 25 0 -5
BITMAP
00000000
00000000
00000000
0000FF00
00001F00
00001F00
00001F00
00001F00
01FF1F00
07C0FF00
1E003F00
1E001F00
3E001F00
3E001F00
3E001F00
3E001F00
0F001F00
0F003F00
07E0FF00
00FF9FF0
00000000
00000000
00000000
00000000
00000000
ENDCHAR

STARTCHAR e
ENCODING 101
SWIDTH 1136 0
DWIDTH 30 0
BBX 30 25 0 -5
BITMAP
00000000
00000000
00000000
00000000
00000000
00000000
00000000
00000000
003FFC00
01F03F00
07C00F80
07C00F80
0F0003C0
0FFFFFC0
0F000000
0F000000
07C00000
07C003C0
03F00FC0
003FFF00
00000000
00000000
00000000
00000000
00000000
ENDCHAR

STARTCHAR f
ENCODING 102
SWIDTH 1136 0
DWIDTH 30 0
BBX 30 25 0 -5
BITMAP
00000000
00000000
00000000
00000000
0007FF00
001F0000
003C0000
003C0000
07FFFE00
003C0000
003C0000
003C0000
003C0000
003C0000
003C0000
003C0000
003C0000
003C0000
003C0000
0FFFF000
00000000
00000000
00000000
00000000
00000000
ENDCHAR

STARTCHAR g
ENCODING 103
SWIDTH 1136 0
DWIDTH 30 0
BBX 30 25 0 -5
BITMAP
00000000
00000000
00000000
00000000
00000000
00000000
00000000
00000000
003FF3F0
00F83FC0
03C00FC0
03C007C0
0F8007C0
0F8007C0
0F8007C0
0F8007C0
03C007C0
03C00FC0
01F83FC0
003FE7C0
000007C0
000007C0
00000F80
00FFFF00
00000000
ENDCHAR

STARTCHAR h
ENCODING 104
SWIDTH 1136 0
DWIDTH 30 0
BBX 30 25 0 -5
BITMAP
00000000
00000000
00000000
00000000
3FE00000
03E00000
03E00000
03E00000
03E7FE00
03FC1F00
03F00F80
03E00F80
03E00F80
03E00F80
03E00F80
03E00F80
03E00F80
03E00F80
03E00F80
3FFC3FF8
00000000
00000000
00000000
00000000
00000000
ENDCHAR

STARTCHAR i
ENCODING 105
SWIDTH 1136 0
DWIDTH 30 0
BBX 30 25 0 -5
BITMAP
00000000
00000000
0007C000
0007C000
0007C000
00000000
00000000
00000000
01FFC000
0007C000
0007C000
0007C000
0007C000
0007C000
0007C000
0007C000
0007C000
0007C000
0007C000
01FFFF00
00000000
00000000
00000000
00000000
00000000
ENDCHAR

STARTCHAR j
ENCODING 106
SWIDTH 1136 0
DWIDTH 30 0
BBX 30 25 0 -5
BITMAP
00000000
00000000
0003E000
0003E000
0003E000
00000000
00000000
00000000
00FFE000
0003E000
0003E000
0003E000
0003E000
0003E000
0003E000
0003E000
0003E000
0003E000
0003E000
0003E000
0003E000
0003C000
0007C000
0FFF0000
00000000
ENDCHAR

STARTCHAR k
ENCODING 107
SWIDTH 1136 0
DWIDTH 30 0
BBX 30 25 0 -5
BITMAP
00000000
00000000
00000000
00000000
3FE00000
03E00000
03E00000
03E00000
03E0FFC0
03E03E00
03E07000
03E0E000
03E3C000
03EFE000
03F8F000
03F07C00
03E03E00
03E01F00
03E00F80
3FF83FF0
00000000
00000000
00000000
00000000
00000000
ENDCHAR

STARTCHAR l
ENCODING 108
SWIDTH 1136 0
DWIDTH 30 0
BBX 30 25 0 -5
BITMAP
00000000
00000000
00000000
00000000
01FF8000
000F8000
000F8000
000F8000
000F8000
000F8000
000F8000
000F8000
000F8000
000F8000
000F8000
000F8000
000F8000
000F8000
000F8000
03FFFE00
00000000
00000000
00000000
00000000
00000000
ENDCHAR

STARTCHAR m
ENCODING 109
SWIDTH 1136 0
DWIDTH 30 0
BBX 30 25 0 -5
BITMAP
00000000
00000000
00000000
00000000
00000000
00000000
00000000
00000000
FDFF3FC0
3F0FE1F0
3E07C0F8
3E07C0F8
3E07C0F8
3E07C0F8
3E07C0F8
3E07C0F8
3E07C0F8
3E07C0F8
3E07C0F8
FFCFE3FC
00000000
00000000
00000000
00000000
00000000
ENDCHAR

STARTCHAR n
ENCODING 110
SWIDTH 1136 0
DWIDTH 30 0
BBX 30 25 0 -5
BITMAP
00000000
00000000
00000000
00000000
00000000
00000000
00000000
00000000
7FC7FE00
07FC1F00
07E00F80
07C00F80
07C00F80
07C00F80
07C00F80
07C00F80
07C00F80
07C00F80
07C00F80
7FF83FF8
00000000
00000000
00000000
00000000
00000000
ENDCHAR

STARTCHAR o
ENCODING 111
SWIDTH 1136 0
DWIDTH 30 0
BBX 30 25 0 -5
BITMAP
00000000
00000000
00000000
00000000
00000000
00000000
00000000
00000000
003FF000
01F03E00
07C00F80
07C00F80
0F0003C0
0F0003C0
0F0003C0
0F0003C0
07C00F80
07C00F80
03F03F00
003FF000
00000000
00000000
00000000
00000000
00000000
ENDCHAR

STARTCHAR p
ENCODING 112
SWIDTH 1136 0
DWIDTH 30 0
BBX 30 25 0 -5
BITMAP
00000000
00000000
00000000
00000000
00000000
00000000
00000000
00000000
3FE7FF00
03FC1FC0
03E003C0
03E001F0
03E001F0
03E001F0
03E001F0
03E001F0
03E001F0
03F003C0
03FC1FC0
03E7FF00
03E00000
03E00000
03E00000
3FFF8000
00000000
ENDCHAR

STARTCHAR q
ENCODING 113
SWIDTH 1136 0
DWIDTH 30 0
BBX 30 25 0 -5
BITMAP
00000000
00000000
00000000
00000000
00000000
00000000
00000000
00000000
00FF9FF0
03E0FF00
0F003F00
0F001F00
3E001F00
3E001F00
3E001F00
3E001F00
0F001F00
0F001F00
07E0FF00
00FF9F00
00001F00
00001F00
00001F00
0003FFF0
00000000
ENDCHAR

STARTCHAR r
ENCODING 114
SWIDTH 1136 0
DWIDTH 30 0
BBX 30 25 0 -5
BITMAP
00000000
00000000
00000000
00000000
00000000
00000000
00000000
00000000
3FF8FFF0
00FF83F0
00FC01F0
00F80000
00F80000
00F80000
00F80000
00F80000
00F80000
00F80000
00F80000
3FFFE000
00000000
00000000
00000000
00000000
00000000
ENDCHAR

STARTCHAR s
ENCODING 115
SWIDTH 1136 0
DWIDTH 30 0
BBX 30 25 0 -5
BITMAP
00000000
00000000
00000000
00000000
00000000
00000000
00000000
00000000
01FFCF80
07E07F80
0FC00F80
0FC00380
07E00000
01FFFE00
00007F80
00000FC0
0F0003C0
0FC00FC0
0FF03F80
0FDFFE00
00000000
00000000
00000000
00000000
00000000
ENDCHAR

STARTCHAR t
ENCODING 116
SWIDTH 1136 0
DWIDTH 30 0
BBX 30 25 0 -5
BITMAP
00000000
00000000
00000000
00000000
00F80000
00F80000
00F80000
00F80000
7FFFFF80
00F80000
00F80000
00F80000
00F80000
00F80000
00F80000
00F80000
00F80000
00F803C0
003C0F80
001FFE00
00000000
00000000
00000000
00000000
00000000
ENDCHAR

STARTCHAR u
ENCODING 117
SWIDTH 1136 0
DWIDTH 30 0
BBX 30 25 0 -5
BITMAP
00000000
00000000
00000000
00000000
00000000
00000000
00000000
00000000
7FC07F00
07C01F00
07C01F00
07C01F00
07C01F00
07C01F00
07C01F00
07C01F00
07C01F00
07C03F00
03E0FF00
01FF9FF0
00000000
00000000
00000000
00000000
00000000
ENDCHAR

STARTCHAR v
ENCODING 118
SWIDTH 1136 0
DWIDTH 30 0
BBX 30 25 0 -5
BITMAP
00000000
00000000
00000000
00000000
00000000
00000000
00000000
00000000
7FC07FE0
3F000700
1F000E00
0F803C00
0F803C00
07C07800
07C0F000
03E1F000
00E1C000
00F38000
007F0000
007F0000
00000000
00000000
00000000
00000000
00000000
ENDCHAR

STARTCHAR w
ENCODING 119
SWIDTH 1136 0
DWIDTH 30 0
BBX 30 25 0 -5
BITMAP
00000000
00000000
00000000
00000000
00000000
00000000
00000000
00000000
FFC003FC
7C008078
7C038078
3E03C0F8
3E07C0F0
0E0FE0F0
0F0CF1C0
0F1C71C0
07383DC0
07F01F80
03F01F80
03E00F00
00000000
00000000
00000000
00000000
00000000
ENDCHAR

STARTCHAR x
ENCODING 120
SWIDTH 1136 0
DWIDTH 30 0
BBX 30 25 0 -5
BITMAP
00000000
00000000
00000000
00000000
00000000
00000000
00000000
00000000
3FFC3FF0
07F01F00
01F83C00
00FC7000
001FE000
000FC000
000FE000
001FF000
00387C00
00F03F00
03E01F80
3FF87FF0
00000000
00000000
00000000
00000000
00000000
ENDCHAR

STARTCHAR y
ENCODING 121
SWIDTH 1136 0
DWIDTH 30 0
BBX 30 25 0 -5
BITMAP
00000000
00000000
00000000
00000000
00000000
00000000
00000000
00000000
7FF03FF8
0FC00F80
07E01F00
03E01E00
01F03E00
00F83C00
003C7000
001FE000
000FE000
0007C000
00078000
000F8000
000F0000
001F0000
001F0000
03FFE000
00000000
ENDCHAR

STARTCHAR z
ENCODING 122
SWIDTH 1136 0
DWIDTH 30 0
BBX 30 25 0 -5
BITMAP
00000000
00000000
00000000
00000000
00000000
00000000
00000000
00000000
03FFFF80
00001F80
00003F00
00007E00
0000F000
0007E000
000FC000
001F0000
003C0180
01F80180
03F00180
03FFFF80
00000000
00000000
00000000
00000000
00000000
ENDCHAR

STARTCHAR braceleft
ENCODING 123
SWIDTH 1136 0
DWIDTH 30 0
BBX 30 25 0 -5
BITMAP
00000000
00000000
0000FC00
00078000
00078000
000F8000
000F8000
000F8000
000F8000
000F8000
000F8000
001F0000
01F80000
001F0000
000F8000
000F8000
000F8000
000F8000
000F8000
000F8000
00078000
00078000
0000FC00
00000000
00000000
ENDCHAR

STARTCHAR bar
ENCODING 124
SWIDTH 1136 0
DWIDTH 30 0
BBX 30 25 0 -5
BITMAP
00000000
00000000
0007C000
0007C000
0007C000
0007C000
0007C000
0007C000
0007C000
0007C000
0007C000
0007C000
0007C000
0007C000
0007C000
0007C000
0007C000
0007C000
0007C000
0007C000
0007C000
0007C000
0007C000
0007C000
00000000
ENDCHAR

STARTCHAR braceright
ENCODING 125
SWIDTH 1136 0
DWIDTH 30 0
BBX 30 25 0 -5
BITMAP
00000000
00000000
00000000
00000000
00FC0000
00078000
00078000
0007C000
0007C000
0007C000
0007C000
0007C000
0003E000
00007E00
0003E000
0007C000
0007C000
0007C000
0007C000
0007C000
0007C000
00078000
00078000
00FC0000
00000000
ENDCHAR

STARTCHAR asciitilde
ENCODING 126
SWIDTH 1136 0
DWIDTH 30 0
BBX 30 25 0 -5
BITMAP
00000000
00000000
00000000
00000000
00000000
00000000
00000000
00000000
00000000
00000000
00FF0380
01FF8380
03FFFF80
03C3FF00
03C0FE00
00000000
00000000
00000000
00000000
00000000
00000000
00000000
00000000
00000000
00000000
ENDCHAR

STARTCHAR space
ENCODING 160
SWIDTH 1136 0
DWIDTH 30 0
BBX 30 25 0 -5
BITMAP
00000000
00000000
00000000
00000000
00000000
00000000
00000000
00000000
00000000
00000000
00000000
00000000
00000000
00000000
00000000
00000000
00000000
00000000
00000000
00000000
00000000
00000000
00000000
00000000
00000000
ENDCHAR

STARTCHAR afii10023
ENCODING 161
SWIDTH 1136 0
DWIDTH 30 0
BBX 30 25 0 -5
BITMAP
01F01F00
01F01F00
01F01F00
00000000
00000000
7FFFFFC0
01F000C0
01F000C0
01F000C0
01F03000
01F03000
01F03000
01FFF000
01F03000
01F03000
01F000C0
01F000C0
01F000C0
01F000C0
7FFFFFC0
00000000
00000000
00000000
00000000
00000000
ENDCHAR

STARTCHAR afii10051
ENCODING 162
SWIDTH 1136 0
DWIDTH 30 0
BBX 30 25 0 -5
BITMAP
00000000
00000000
00000000
00000000
00000000
FFFFFE00
F87C3E00
F87C3E00
F87C3E00
F87C3E00
007C0000
007DFFE0
007FE1F8
007F00FC
007C007C
007C007C
007C007C
007C00FC
007C01F8
0FFFDFE0
00000000
00000000
00000000
00000000
00000000
ENDCHAR

STARTCHAR afii10052
ENCODING 163
SWIDTH 1136 0
DWIDTH 30 0
BBX 30 25 0 -5
BITMAP
0003F000
000FC000
007E0000
00780000
00000000
7FFFFFF0
01F001F0
01F001F0
01F001F0
01F001F0
01F001F0
01F00000
01F00000
01F00000
01F00000
01F00000
01F00000
01F00000
01F00000
7FFFC000
00000000
00000000
00000000
00000000
00000000
ENDCHAR

STARTCHAR afii10053
ENCODING 164
SWIDTH 1136 0
DWIDTH 30 0
BBX 30 25 0 -5
BITMAP
00000000
00000000
00000000
00000000
00000000
007FE1E0
07E07FE0
1F001FE0
3F0001E0
7C000000
7C000000
7FFFF000
7C000000
7C000000
7C000000
3E000000
1F000000
0FC007E0
03E01F80
007FFE00
00000000
00000000
00000000
00000000
00000000
ENDCHAR

STARTCHAR afii10054
ENCODING 165
SWIDTH 1136 0
DWIDTH 30 0
BBX 30 25 0 -5
BITMAP
00000000
00000000
00000000
00000000
00000000
01FFDF00
07E07F00
0FC03F00
0F801F00
0F800000
0FC00000
07FF8000
01FFFC00
0001FF00
00001F80
0F800780
0F800780
0FC01F80
0FE07F00
0E7FFC00
00000000
00000000
00000000
00000000
00000000
ENDCHAR

STARTCHAR afii10055
ENCODING 166
SWIDTH 1136 0
DWIDTH 30 0
BBX 30 25 0 -5
BITMAP
00000000
00000000
00000000
00000000
00000000
07FFFF00
000F8000
000F8000
000F8000
000F8000
000F8000
000F8000
000F8000
000F8000
000F8000
000F8000
000F8000
000F8000
000F8000
07FFFF00
00000000
00000000
00000000
00000000
00000000
ENDCHAR

STARTCHAR afii10056
ENCODING 167
SWIDTH 1136 0
DWIDTH 30 0
BBX 30 25 0 -5
BITMAP
00F8F800
00F8F800
00F8F800
00000000
00000000
07FFFF00
000F8000
000F8000
000F8000
000F8000
000F8000
000F8000
000F8000
000F8000
000F8000
000F8000
000F8000
000F8000
000F8000
07FFFF00
00000000
00000000
00000000
00000000
00000000
ENDCHAR

STARTCHAR afii10057
ENCODING 168
SWIDTH 1136 0
DWIDTH 30 0
BBX 30 25 0 -5
BITMAP
00000000
00000000
00000000
00000000
00000000
00FFFFF0
00007C00
00007C00
00007C00
00007C00
00007C00
00007C00
00007C00
0C007C00
0C007C00
0C007C00
0C007C00
0E007000
0F00F000
03FFC000
00000000
00000000
00000000
00000000
00000000
ENDCHAR

STARTCHAR afii10058
ENCODING 169
SWIDTH 1136 0
DWIDTH 30 0
BBX 30 25 0 -5
BITMAP
00000000
00000000
00000000
00000000
00000000
1FFFFFC0
00F9F000
00F9F000
00F9F000
00F9F000
00F9F000
00F9F000
00F9FFF0
00F9F0F8
C0F9F078
C0F9F07C
C0F1F07C
E1F1F0F8
F3E1FFF0
7F8FFF80
00000000
00000000
00000000
00000000
00000000
ENDCHAR

STARTCHAR afii10059
ENCODING 170
SWIDTH 1136 0
DWIDTH 30 0
BBX 30 25 0 -5
BITMAP
00000000
00000000
00000000
00000000
00000000
FFBFE000
3E0F8000
3E0F8000
3E0F8000
3E0F8000
3E0F8000
3E0F8000
3FFFFFC0
3E0F83F0
3E0F8078
3E0F803C
3E0F807C
3E0F8078
3E0F81F0
FFBFFFC0
00000000
00000000
00000000
00000000
00000000
ENDCHAR

STARTCHAR afii10060
ENCODING 171
SWIDTH 1136 0
DWIDTH 30 0
BBX 30 25 0 -5
BITMAP
00000000
00000000
00000000
00000000
00000000
FFFFF800
F8F8F800
F8F8F800
F8F8F800
F8F8F800
00F80000
00FFFF00
00FF8FC0
00FC07E0
00F803E0
00F803E0
00F803E0
00F803E0
00F803E0
1FFF3FFC
00000000
00000000
00000000
00000000
00000000
ENDCHAR

STARTCHAR afii10061
ENCODING 172
SWIDTH 1136 0
DWIDTH 30 0
BBX 30 25 0 -5
BITMAP
00000000
0001F800
000FC000
003F0000
00000000
7FFC1FF0
07C07EF0
07C0FCF0
07C1F000
07C3E000
07C7C000
07FF8000
07CFE000
07C3F000
07C0F800
07C07C00
07C03E00
07C01F00
07C00F80
7FFC07FC
00000000
00000000
00000000
00000000
00000000
ENDCHAR

STARTCHAR hyphen
ENCODING 173
SWIDTH 1136 0
DWIDTH 30 0
BBX 30 25 0 -5
BITMAP
00000000
00000000
00000000
00000000
00000000
00000000
00000000
00000000
00000000
00000000
00000000
00000000
03FFFF00
03FFFF00
00000000
00000000
00000000
00000000
00000000
00000000
00000000
00000000
00000000
00000000
00000000
ENDCHAR

STARTCHAR afii10062
ENCODING 174
SWIDTH 1136 0
DWIDTH 30 0
BBX 30 25 0 -5
BITMAP
00C00C00
03F03F00
01FCFE00
007FF000
00000000
FFE03FFC
1F0007E0
0F800FC0
07C01F80
03E03E00
01F07C00
00F8F800
007DF000
003FE000
001FC000
000F8000
3E1F0000
3E7E0000
3EF80000
1FE00000
00000000
00000000
00000000
00000000
00000000
ENDCHAR

STARTCHAR afii10145
ENCODING 175
SWIDTH 1136 0
DWIDTH 30 0
BBX 30 25 0 -5
BITMAP
00000000
00000000
00000000
00000000
00000000
7FFCFFF8
07C00F80
07C00F80
07C00F80
07C00F80
07C00F80
07C00F80
07C00F80
07C00F80
07C00F80
07C00F80
07C00F80
07C00F80
07C00F80
7FFFFFF8
0007C000
0007C000
0007C000
00038000
00000000
ENDCHAR

STARTCHAR afii10017
ENCODING 176
SWIDTH 1136 0
DWIDTH 30 0
BBX 30 25 0 -5
BITMAP
00000000
00000000
00000000
00000000
00000000
0007C000
000FE000
000FF000
001CF000
00387C00
00383E00
00F03E00
01E01F00
03E01F80
03C00F80
07FFFFC0
07000FC0
0E0003F0
3E0003F0
FFF01FFC
00000000
00000000
00000000
00000000
00000000
ENDCHAR

STARTCHAR afii10018
ENCODING 177
SWIDTH 1136 0
DWIDTH 30 0
BBX 30 25 0 -5
BITMAP
00000000
00000000
00000000
00000000
00000000
7FFFFFE0
07C003E0
07C003E0
07C003E0
07C003E0
07C00000
07C00000
07FFFF00
07C00FE0
07C001F0
07C000F8
07C000F8
07C001F0
07C007E0
7FFFFF00
00000000
00000000
00000000
00000000
00000000
ENDCHAR

STARTCHAR afii10019
ENCODING 178
SWIDTH 1136 0
DWIDTH 30 0
BBX 30 25 0 -5
BITMAP
00000000
00000000
00000000
00000000
00000000
0FFFFC00
0F803F00
0F800F80
0F8007C0
0F8007C0
0F800F80
0F801F00
0FFFFC00
0F800FC0
0F8003E0
0F8001F0
0F8001F0
0F8003E0
0F800FC0
0FFFFF00
00000000
00000000
00000000
00000000
00000000
ENDCHAR

STARTCHAR afii10020
ENCODING 179
SWIDTH 1136 0
DWIDTH 30 0
BBX 30 25 0 -5
BITMAP
00000000
00000000
00000000
00000000
00000000
7FFFFFE0
01F001E0
01F001E0
01F001E0
01F001E0
01F001E0
01F00000
01F00000
01F00000
01F00000
01F00000
01F00000
01F00000
01F00000
7FFFC000
00000000
00000000
00000000
00000000
00000000
ENDCHAR

STARTCHAR afii10021
ENCODING 180
SWIDTH 1136 0
DWIDTH 30 0
BBX 30 25 0 -5
BITMAP
00000000
00000000
00000000
00000000
00000000
1FFFFFF8
01F80F80
01F80F80
01F80F80
01F80F80
01F80F80
01F80F80
01F80F80
01F00F80
01F00F80
01F00F80
03F00F80
07E00F80
1F000F80
FFFFFFF8
F80000F8
F80000F8
F80000F8
F80000F8
00000000
ENDCHAR

STARTCHAR afii10022
ENCODING 181
SWIDTH 1136 0
DWIDTH 30 0
BBX 30 25 0 -5
BITMAP
00000000
00000000
00000000
00000000
00000000
7FFFFFC0
01F000C0
01F000C0
01F000C0
01F03000
01F03000
01F03000
01FFF000
01F03000
01F03000
01F000C0
01F000C0
01F000C0
01F000C0
7FFFFFC0
00000000
00000000
00000000
00000000
00000000
ENDCHAR

STARTCHAR afii10024
ENCODING 182
SWIDTH 1136 0
DWIDTH 30 0
BBX 30 25 0 -5
BITMAP
00000000
00000000
00000000
00000000
00000000
FE7FF3FC
FF0F8FFC
F78F9FBC
07CFBF00
03EFFE00
01FFFC00
00FFF000
01FFFC00
03EFBE00
07CF9F00
0F8F8F80
1F0F8FC0
3E0F87E0
7C0F83F0
FC7FF1FC
00000000
00000000
00000000
00000000
00000000
ENDCHAR

STARTCHAR afii10025
ENCODING 183
SWIDTH 1136 0
DWIDTH 30 0
BBX 30 25 0 -5
BITMAP
00000000
00000000
00000000
00000000
00000000
1EFFFE00
1FE01FC0
1F8003E0
1F0003E0
1E0003E0
1E0007E0
00003D80
00FFFE00
00000FE0
000001F0
000001F0
000001F0
7E0003F0
3FC00FC0
01FFFE00
00000000
00000000
00000000
00000000
00000000
ENDCHAR

STARTCHAR afii10026
ENCODING 184
SWIDTH 1136 0
DWIDTH 30 0
BBX 30 25 0 -5
BITMAP
00000000
00000000
00000000
00000000
00000000
FFF83FFC
0F8037C0
0F8067C0
0F80C7C0
0F8187C0
0F8307C0
0F8307C0
0F8607C0
0F8C07C0
0F9807C0
0FB007C0
0FE007C0
0FC007C0
0FC007C0
FFF8FFFC
00000000
00000000
00000000
00000000
00000000
ENDCHAR

STARTCHAR afii10027
ENCODING 185
SWIDTH 1136 0
DWIDTH 30 0
BBX 30 25 0 -5
BITMAP
00C00C00
03F03F00
01FCFE00
003FF000
00000000
FFF83FFC
0F8037C0
0F8067C0
0F80C7C0
0F8187C0
0F8307C0
0F8307C0
0F8607C0
0F8C07C0
0F9807C0
0FB007C0
0FE007C0
0FC007C0
0FC007C0
FFF8FFFC
00000000
00000000
00000000
00000000
00000000
ENDCHAR

STARTCHAR afii10028
ENCODING 186
SWIDTH 1136 0
DWIDTH 30 0
BBX 30 25 0 -5
BITMAP
00000000
00000000
00000000
00000000
00000000
7FFC1FF0
07C07EF0
07C0FCF0
07C1F000
07C3E000
07C7C000
07FF8000
07CFE000
07C3F000
07C0F800
07C07C00
07C03E00
07C01F00
07C00F80
7FFC07FC
00000000
00000000
00000000
00000000
00000000
ENDCHAR

STARTCHAR afii10029
ENCODING 187
SWIDTH 1136 0
DWIDTH 30 0
BBX 30 25 0 -5
BITMAP
00000000
00000000
00000000
00000000
00000000
1FFFFFFC
00FC07C0
00FC07C0
00FC07C0
00FC07C0
00FC07C0
00FC07C0
00FC07C0
00FC07C0
C0FC07C0
C0F807C0
C0F807C0
E0F807C0
F1F007C0
7F807FFC
00000000
00000000
00000000
00000000
00000000
ENDCHAR

STARTCHAR afii10030
ENCODING 188
SWIDTH 1136 0
DWIDTH 30 0
BBX 30 25 0 -5
BITMAP
00000000
00000000
00000000
00000000
00000000
FFC00FFC
3FC00FF0
3FE01FF0
3EE01DF0
3E3031F0
3E3031F0
3E1861F0
3E1861F0
3E0CC1F0
3E0FC1F0
3E0781F0
3E0781F0
3E0001F0
3E0001F0
FFE01FFC
00000000
00000000
00000000
00000000
00000000
ENDCHAR

STARTCHAR afii10031
ENCODING 189
SWIDTH 1136 0
DWIDTH 30 0
BBX 30 25 0 -5
BITMAP
00000000
00000000
00000000
00000000
00000000
7FF87FF8
07C00F80
07C00F80
07C00F80
07C00F80
07C00F80
07C00F80
07FFFF80
07C00F80
07C00F80
07C00F80
07C00F80
07C00F80
07C00F80
7FF87FF8
00000000
00000000
00000000
00000000
00000000
ENDCHAR

STARTCHAR afii10032
ENCODING 190
SWIDTH 1136 0
DWIDTH 30 0
BBX 30 25 0 -5
BITMAP
00000000
00000000
00000000
00000000
00000000
00FFFC00
03E01F00
0F0003C0
0F0003C0
3E0001F0
3E0001F0
3E0001F0
3E0001F0
3E0001F0
3E0001F0
3E0001F0
0F0003C0
0F0003C0
03E01F00
00FFFC00
00000000
00000000
00000000
00000000
00000000
ENDCHAR

STARTCHAR afii10033
ENCODING 191
SWIDTH 1136 0
DWIDTH 30 0
BBX 30 25 0 -5
BITMAP
00000000
00000000
00000000
00000000
00000000
7FFFFFF8
07C00F80
07C00F80
07C00F80
07C00F80
07C00F80
07C00F80
07C00F80
07C00F80
07C00F80
07C00F80
07C00F80
07C00F80
07C00F80
7FFCFFF8
00000000
00000000
00000000
00000000
00000000
ENDCHAR

STARTCHAR afii10034
ENCODING 192
SWIDTH 1136 0
DWIDTH 30 0
BBX 30 25 0 -5
BITMAP
00000000
00000000
00000000
00000000
00000000
7FFFFE00
03E01FC0
03E003E0
03E001F0
03E001F0
03E003F0
03E007E0
03E01F80
03FFFC00
03E00000
03E00000
03E00000
03E00000
03E00000
7FFFC000
00000000
00000000
00000000
00000000
00000000
ENDCHAR

STARTCHAR afii10035
ENCODING 193
SWIDTH 1136 0
DWIDTH 30 0
BBX 30 25 0 -5
BITMAP
00000000
00000000
00000000
00000000
00000000
003FF0F0
03F03EF0
07C00FF0
0FC001F0
0F0000F0
3E0000F0
3E000000
3E000000
3E000000
3E000000
0F000000
0FC00000
07C003F0
03F00FC0
003FFF00
00000000
00000000
00000000
00000000
00000000
ENDCHAR

STARTCHAR afii10036
ENCODING 194
SWIDTH 1136 0
DWIDTH 30 0
BBX 30 25 0 -5
BITMAP
00000000
00000000
00000000
00000000
00000000
7FFFFFF0
780F80F0
780F80F0
780F80F0
780F80F0
000F8000
000F8000
000F8000
000F8000
000F8000
000F8000
000F8000
000F8000
000F8000
01FFFC00
00000000
00000000
00000000
00000000
00000000
ENDCHAR

STARTCHAR afii10037
ENCODING 195
SWIDTH 1136 0
DWIDTH 30 0
BBX 30 25 0 -5
BITMAP
00000000
00000000
00000000
00000000
00000000
FFE03FFC
1F0007E0
0F800FC0
07C01F80
03E03E00
01F07C00
00F8F800
007DF000
003FE000
001FC000
000F8000
3E1F0000
3E7E0000
3EF80000
1FE00000
00000000
00000000
00000000
00000000
00000000
ENDCHAR

STARTCHAR afii10038
ENCODING 196
SWIDTH 1136 0
DWIDTH 30 0
BBX 30 25 0 -5
BITMAP
00000000
00000000
00000000
00000000
00000000
00FFF800
000F8000
01FFF800
0FFFFF80
3F0F87E0
7C0F83F0
FC0F81F8
F80F80F8
FC0F81F8
7C0F81F0
3F0F87E0
0FFFFF80
00FFF800
000F8000
00FFF800
00000000
00000000
00000000
00000000
00000000
ENDCHAR

STARTCHAR afii10039
ENCODING 197
SWIDTH 1136 0
DWIDTH 30 0
BBX 30 25 0 -5
BITMAP
00000000
00000000
00000000
00000000
00000000
7FFC3FF0
07F00F00
01F81E00
00FC3C00
003F7000
001FE000
000FC000
000FE000
001FF000
003CFC00
00F87E00
01F03F00
03E01F80
07C00FC0
7FF01FF8
00000000
00000000
00000000
00000000
00000000
ENDCHAR

STARTCHAR afii10040
ENCODING 198
SWIDTH 1136 0
DWIDTH 30 0
BBX 30 25 0 -5
BITMAP
00000000
00000000
00000000
00000000
00000000
FFF9FFF0
0F801F00
0F801F00
0F801F00
0F801F00
0F801F00
0F801F00
0F801F00
0F801F00
0F801F00
0F801F00
0F801F00
0F801F00
0F801F00
FFFFFFF0
000001F0
000001F0
000001F0
00000000
00000000
ENDCHAR

STARTCHAR afii10041
ENCODING 199
SWIDTH 1136 0
DWIDTH 30 0
BBX 30 25 0 -5
BITMAP
00000000
00000000
00000000
00000000
00000000
FFF8FFF8
0F800F80
0F800F80
0F800F80
0F800F80
0F800F80
0F800F80
0F801F80
07C07F80
03FFCF80
00000F80
00000F80
00000F80
00000F80
000FFFF8
00000000
00000000
00000000
00000000
00000000
ENDCHAR

STARTCHAR afii10042
ENCODING 200
SWIDTH 1136 0
DWIDTH 30 0
BBX 30 25 0 -5
BITMAP
00000000
00000000
00000000
00000000
00000000
FFBFEFF8
3E0F83E0
3E0F83E0
3E0F83E0
3E0F83E0
3E0F83E0
3E0F83E0
3E0F83E0
3E0F83E0
3E0F83E0
3E0F83E0
3E0F83E0
3E0F83E0
3E0F83E0
FFFFFFF8
00000000
00000000
00000000
00000000
00000000
ENDCHAR

STARTCHAR afii10043
ENCODING 201
SWIDTH 1136 0
DWIDTH 30 0
BBX 30 25 0 -5
BITMAP
00000000
00000000
00000000
00000000
00000000
FFBFEFF8
3E0F83E0
3E0F83E0
3E0F83E0
3E0F83E0
3E0F83E0
3E0F83E0
3E0F83E0
3E0F83E0
3E0F83E0
3E0F83E0
3E0F83E0
3E0F83E0
3E0F83E0
FFFFFFFC
0000007C
0000007C
0000007C
0000007C
00000000
ENDCHAR

STARTCHAR afii10044
ENCODING 202
SWIDTH 1136 0
DWIDTH 30 0
BBX 30 25 0 -5
BITMAP
00000000
00000000
00000000
00000000
00000000
FFFF8000
F8F80000
F8F80000
F8F80000
F8F80000
00F80000
00F80000
00FFFF80
00F803F0
00F800F8
00F8007C
00F8007C
00F800F8
00F803F0
0FFFFF80
00000000
00000000
00000000
00000000
00000000
ENDCHAR

STARTCHAR afii10045
ENCODING 203
SWIDTH 1136 0
DWIDTH 30 0
BBX 30 25 0 -5
BITMAP
00000000
00000000
00000000
00000000
00000000
FFE01FFC
1F0003E0
1F0003E0
1F0003E0
1F0003E0
1F0003E0
1F0003E0
1FFF83E0
1F07E3E0
1F01F3E0
1F00FBE0
1F00FBE0
1F00F3E0
1F03E3E0
FFFF9FFC
00000000
00000000
00000000
00000000
00000000
ENDCHAR

STARTCHAR afii10046
ENCODING 204
SWIDTH 1136 0
DWIDTH 30 0
BBX 30 25 0 -5
BITMAP
00000000
00000000
00000000
00000000
00000000
FFF80000
0F800000
0F800000
0F800000
0F800000
0F800000
0F800000
0FFFFE00
0F801FC0
0F8003E0
0F8001F0
0F8001F0
0F8003E0
0F800FC0
FFFFFE00
00000000
00000000
00000000
00000000
00000000
ENDCHAR

STARTCHAR afii10047
ENCODING 205
SWIDTH 1136 0
DWIDTH 30 0
BBX 30 25 0 -5
BITMAP
00000000
00000000
00000000
00000000
00000000
3E1FF800
3FF81F80
3FC003E0
3E0003F0
000001F0
000001F0
00FFFFF0
000001F0
000001F0
000001F0
000003E0
000007C0
3E001F80
0FC03E00
03FFF000
00000000
00000000
00000000
00000000
00000000
ENDCHAR

STARTCHAR afii10048
ENCODING 206
SWIDTH 1136 0
DWIDTH 30 0
BBX 30 25 0 -5
BITMAP
00000000
00000000
00000000
00000000
00000000
FF83FF00
3E1F87E0
3E3E01F0
3E7C00F8
3E780078
3EF8007C
3EF8007C
3FF8007C
3EF8007C
3EF8007C
3E780078
3E7C00F8
3E3E01F0
3E1F87E0
FF83FF80
00000000
00000000
00000000
00000000
00000000
ENDCHAR

STARTCHAR afii10049
ENCODING 207
SWIDTH 1136 0
DWIDTH 30 0
BBX 30 25 0 -5
BITMAP
00000000
00000000
00000000
00000000
00000000
00FFFFFC
03F00FC0
0FC00FC0
0F800FC0
0F800FC0
07C00FC0
03F80FC0
001FFFC0
007E0FC0
01F80FC0
03E00FC0
07C00FC0
1F800FC0
3F000FC0
FE01FFFC
00000000
00000000
00000000
00000000
00000000
ENDCHAR

STARTCHAR afii10065
ENCODING 208
SWIDTH 1136 0
DWIDTH 30 0
BBX 30 25 0 -5
BITMAP
00000000
00000000
00000000
00000000
00000000
00000000
00000000
00000000
03FFFC00
0FC01F00
00000F00
00000F80
01FFFF80
07E01F80
0FC00F80
0FC00F80
0FC00F80
0FC01F80
07E07F80
03FFCFF0
00000000
00000000
00000000
00000000
00000000
ENDCHAR

STARTCHAR afii10066
ENCODING 209
SWIDTH 1136 0
DWIDTH 30 0
BBX 30 25 0 -5
BITMAP
00000000
00000000
00000000
00000000
00003C00
003FF000
00E00000
01800000
033FF000
03F03E00
0F801F00
0F801F00
1E000780
1E000780
1E000780
1E000780
0F801F00
0F801F00
07E07E00
007FE000
00000000
00000000
00000000
00000000
00000000
ENDCHAR

STARTCHAR afii10067
ENCODING 210
SWIDTH 1136 0
DWIDTH 30 0
BBX 30 25 0 -5
BITMAP
00000000
00000000
00000000
00000000
00000000
00000000
00000000
00000000
7FFFFC00
07C01F00
07C00F80
07C01F80
07C03F00
07FFF800
07C01F80
07C007C0
07C003E0
07C007E0
07C00FC0
7FFFFF00
00000000
00000000
00000000
00000000
00000000
ENDCHAR

STARTCHAR afii10068
ENCODING 211
SWIDTH 1136 0
DWIDTH 30 0
BBX 30 25 0 -5
BITMAP
00000000
00000000
00000000
00000000
00000000
00000000
00000000
00000000
7FFFFFE0
00F803E0
00F803E0
00F803E0
00F803E0
00F803E0
00F80000
00F80000
00F80000
00F80000
00F80000
7FFFF000
00000000
00000000
00000000
00000000
00000000
ENDCHAR

STARTCHAR afii10069
ENCODING 212
SWIDTH 1136 0
DWIDTH 30 0
BBX 30 25 0 -5
BITMAP
00000000
00000000
00000000
00000000
00000000
00000000
00000000
00000000
0FFFFFF8
00F80F80
00F80F80
00F80F80
00F80F80
00F80F80
00F80F80
01F80F80
01F00F80
03F00F80
0F800F80
FFFFFFF8
F80001F8
F80001F8
F00000F8
00000000
00000000
ENDCHAR

STARTCHAR afii10070
ENCODING 213
SWIDTH 1136 0
DWIDTH 30 0
BBX 30 25 0 -5
BITMAP
00000000
00000000
00000000
00000000
00000000
00000000
00000000
00000000
003FFC00
01F03F00
07C00F80
07C00F80
0F0003C0
0FFFFFC0
0F000000
0F000000
07C00000
07C003C0
03F00FC0
003FFF00
00000000
00000000
00000000
00000000
00000000
ENDCHAR

STARTCHAR afii10072
ENCODING 214
SWIDTH 1136 0
DWIDTH 30 0
BBX 30 25 0 -5
BITMAP
00000000
00000000
00000000
00000000
00000000
00000000
00000000
00000000
FC7FF3F8
FF8F8FF8
F7CF9F78
03EFBE00
00FFF000
01FFF800
07EFBE00
0F8F9F00
1F0F8FC0
3E0F87E0
7C0F83F8
FE7FF3FC
00000000
00000000
00000000
00000000
00000000
ENDCHAR

STARTCHAR afii10073
ENCODING 215
SWIDTH 1136 0
DWIDTH 30 0
BBX 30 25 0 -5
BITMAP
00000000
00000000
00000000
00000000
00000000
00000000
00000000
00000000
1F7FFE00
1FE01F00
1F001F80
1F0007C0
1F0007C0
00001F80
00FFFE00
00000FC0
000003E0
000003E0
7F800FC0
03FFFE00
00000000
00000000
00000000
00000000
00000000
ENDCHAR

STARTCHAR afii10074
ENCODING 216
SWIDTH 1136 0
DWIDTH 30 0
BBX 30 25 0 -5
BITMAP
00000000
00000000
00000000
00000000
00000000
00000000
00000000
00000000
FFF80FFC
0F801FC0
0F803FC0
0F8067C0
0F80C7C0
0F8187C0
0F8707C0
0F8E07C0
0F9C07C0
0FB007C0
0FE007C0
FFC07FFC
00000000
00000000
00000000
00000000
00000000
ENDCHAR

STARTCHAR afii10075
ENCODING 217
SWIDTH 1136 0
DWIDTH 30 0
BBX 30 25 0 -5
BITMAP
00000000
00000000
00000000
00E00600
01F01F80
00FC7F00
003FF800
00000000
FFF807FC
0F800FC0
0F801FC0
0F8037C0
0F80E7C0
0F81C7C0
0F8707C0
0F8E07C0
0F9C07C0
0FB007C0
0FE007C0
FFC07FFC
00000000
00000000
00000000
00000000
00000000
ENDCHAR

STARTCHAR afii10076
ENCODING 218
SWIDTH 1136 0
DWIDTH 30 0
BBX 30 25 0 -5
BITMAP
00000000
00000000
00000000
00000000
00000000
00000000
00000000
00000000
7FFC3FE0
07C0FDE0
07C1F1E0
07C7E000
07FF0000
07FFC000
07C3F000
07C0F800
07C07E00
07C01F00
07C00FC0
7FFC0FF8
00000000
00000000
00000000
00000000
00000000
ENDCHAR

STARTCHAR afii10077
ENCODING 219
SWIDTH 1136 0
DWIDTH 30 0
BBX 30 25 0 -5
BITMAP
00000000
00000000
00000000
00000000
00000000
00000000
00000000
00000000
1FFFFFF8
00F80F80
00F80F80
00F80F80
00F80F80
00F80F80
00F80F80
00F80F80
01F80F80
F1F00F80
F1E00F80
FF80FFF8
00000000
00000000
00000000
00000000
00000000
ENDCHAR

STARTCHAR afii10078
ENCODING 220
SWIDTH 1136 0
DWIDTH 30 0
BBX 30 25 0 -5
BITMAP
00000000
00000000
00000000
00000000
00000000
00000000
00000000
00000000
FF000FF8
3F801FE0
3FC03FE0
3FE07FE0
3EF0FDE0
3EF8FBE0
3E7DF3E0
3E7FE3E0
3E3FC3E0
3E0F83E0
3E0003E0
FFC01FF8
00000000
00000000
00000000
00000000
00000000
ENDCHAR

STARTCHAR afii10079
ENCODING 221
SWIDTH 1136 0
DWIDTH 30 0
BBX 30 25 0 -5
BITMAP
00000000
00000000
00000000
00000000
00000000
00000000
00000000
00000000
7FF0FFE0
0F801F00
0F801F00
0F801F00
0F801F00
0FFFFF00
0F801F00
0F801F00
0F801F00
0F801F00
0F801F00
7FF0FFE0
00000000
00000000
00000000
00000000
00000000
ENDCHAR

STARTCHAR afii10080
ENCODING 222
SWIDTH 1136 0
DWIDTH 30 0
BBX 30 25 0 -5
BITMAP
00000000
00000000
00000000
00000000
00000000
00000000
00000000
00000000
003FF000
01F03E00
07C00F80
07C00F80
0F0003C0
0F0003C0
0F0003C0
0F0003C0
07C00F80
07C00F80
03F03F00
003FF000
00000000
00000000
00000000
00000000
00000000
ENDCHAR

STARTCHAR afii10081
ENCODING 223
SWIDTH 1136 0
DWIDTH 30 0
BBX 30 25 0 -5
BITMAP
00000000
00000000
00000000
00000000
00000000
00000000
00000000
00000000
3FFFFFE0
07C01F00
07C01F00
07C01F00
07C01F00
07C01F00
07C01F00
07C01F00
07C01F00
07C01F00
07C01F00
3FF87FE0
00000000
00000000
00000000
00000000
00000000
ENDCHAR

STARTCHAR afii10082
ENCODING 224
SWIDTH 1136 0
DWIDTH 30 0
BBX 30 25 0 -5
BITMAP
00000000
00000000
00000000
00000000
00000000
00000000
00000000
00000000
3FE7FF00
03FC1FC0
03E003C0
03E001F0
03E001F0
03E001F0
03E001F0
03E001F0
03E001F0
03F003C0
03FC1FC0
03E7FF00
03E00000
03E00000
03E00000
3FFF8000
00000000
ENDCHAR

STARTCHAR afii10083
ENCODING 225
SWIDTH 1136 0
DWIDTH 30 0
BBX 30 25 0 -5
BITMAP
00000000
00000000
00000000
00000000
00000000
00000000
00000000
00000000
007FF980
03E03F80
07800380
0F800180
0F000180
0F000000
0F000000
0F000000
07C00000
07C00780
03F01F80
01FFFE00
00000000
00000000
00000000
00000000
00000000
ENDCHAR

STARTCHAR afii10084
ENCODING 226
SWIDTH 1136 0
DWIDTH 30 0
BBX 30 25 0 -5
BITMAP
00000000
00000000
00000000
00000000
00000000
00000000
00000000
00000000
3FFFFFE0
3E0F83E0
3E0F83E0
3E0F83E0
3E0F83E0
3E0F83E0
000F8000
000F8000
000F8000
000F8000
000F8000
07FFFF00
00000000
00000000
00000000
00000000
00000000
ENDCHAR

STARTCHAR afii10085
ENCODING 227
SWIDTH 1136 0
DWIDTH 30 0
BBX 30 25 0 -5
BITMAP
00000000
00000000
00000000
00000000
00000000
00000000
00000000
00000000
FFE03FFC
3E0003F0
1F0007C0
0F800F80
07C01F00
03F03E00
01F87C00
00FDF800
003FE000
001FC000
000F8000
3E1F0000
3E7E0000
3FFC0000
0FE00000
00000000
00000000
ENDCHAR

STARTCHAR afii10086
ENCODING 228
SWIDTH 1136 0
DWIDTH 30 0
BBX 30 25 0 -5
BITMAP
00000000
00000000
00000000
00000000
00000000
01FF8000
000F8000
000F8000
000F8000
07FFFE00
1F8F8FC0
3F0F87E0
7E0F83F0
7C0F81F0
7C0F81F0
7C0F81F0
7C0F83F0
3E0F87E0
1F1F8FC0
07FFFF00
000F8000
000F8000
000F8000
03FFFE00
00000000
ENDCHAR

STARTCHAR afii10087
ENCODING 229
SWIDTH 1136 0
DWIDTH 30 0
BBX 30 25 0 -5
BITMAP
00000000
00000000
00000000
00000000
00000000
00000000
00000000
00000000
3FFC3FF0
07F01F00
01F83C00
00FC7000
001FE000
000FC000
000FE000
001FF000
00387C00
00F03F00
03E01F80
3FF87FF0
00000000
00000000
00000000
00000000
00000000
ENDCHAR

STARTCHAR afii10088
ENCODING 230
SWIDTH 1136 0
DWIDTH 30 0
BBX 30 25 0 -5
BITMAP
00000000
00000000
00000000
00000000
00000000
00000000
00000000
00000000
7FF1FFC0
0F803E00
0F803E00
0F803E00
0F803E00
0F803E00
0F803E00
0F803E00
0F803E00
0F803E00
0F803E00
7FFFFFE0
000003E0
000003E0
000003E0
00000000
00000000
ENDCHAR

STARTCHAR afii10089
ENCODING 231
SWIDTH 1136 0
DWIDTH 30 0
BBX 30 25 0 -5
BITMAP
00000000
00000000
00000000
00000000
00000000
00000000
00000000
00000000
3FF9FFF0
07C01F00
07C01F00
07C01F00
07C01F00
07C03F00
03E1FF00
01FFDF00
00001F00
00001F00
00001F00
0007FFF0
00000000
00000000
00000000
00000000
00000000
ENDCHAR

STARTCHAR afii10090
ENCODING 232
SWIDTH 1136 0
DWIDTH 30 0
BBX 30 25 0 -5
BITMAP
00000000
00000000
00000000
00000000
00000000
00000000
00000000
00000000
FFBFEFF8
3E0F83E0
3E0F83E0
3E0F83E0
3E0F83E0
3E0F83E0
3E0F83E0
3E0F83E0
3E0F83E0
3E0F83E0
3E0F83E0
FFFFFFF8
00000000
00000000
00000000
00000000
00000000
ENDCHAR

STARTCHAR afii10091
ENCODING 233
SWIDTH 1136 0
DWIDTH 30 0
BBX 30 25 0 -5
BITMAP
00000000
00000000
00000000
00000000
00000000
00000000
00000000
00000000
FFBFEFF8
3E0F83E0
3E0F83E0
3E0F83E0
3E0F83E0
3E0F83E0
3E0F83E0
3E0F83E0
3E0F83E0
3E0F83E0
3E0F83E0
FFFFFFFC
0000003C
0000003C
0000003C
00000000
00000000
ENDCHAR

STARTCHAR afii10092
ENCODING 234
SWIDTH 1136 0
DWIDTH 30 0
BBX 30 25 0 -5
BITMAP
00000000
00000000
00000000
00000000
00000000
00000000
00000000
00000000
FFFFC000
F87C0000
F87C0000
F87C0000
F87C0000
007C0000
007FFFC0
007C01F0
007C00F8
007C00F8
007C01F0
07FFFFC0
00000000
00000000
00000000
00000000
00000000
ENDCHAR

STARTCHAR afii10093
ENCODING 235
SWIDTH 1136 0
DWIDTH 30 0
BBX 30 25 0 -5
BITMAP
00000000
00000000
00000000
00000000
00000000
00000000
00000000
00000000
FFE01FFC
1F0003E0
1F0003E0
1F0003E0
1F0003E0
1F0003E0
1FFF83E0
1F03E3E0
1F01F3E0
1F01F3E0
1F03E3E0
FFFF9FFC
00000000
00000000
00000000
00000000
00000000
ENDCHAR

STARTCHAR afii10094
ENCODING 236
SWIDTH 1136 0
DWIDTH 30 0
BBX 30 25 0 -5
BITMAP
00000000
00000000
00000000
00000000
00000000
00000000
00000000
00000000
3FFE0000
07C00000
07C00000
07C00000
07C00000
07C00000
07FFFE00
07C00F80
07C007C0
07C007C0
07C01F80
3FFFFE00
00000000
00000000
00000000
00000000
00000000
ENDCHAR

STARTCHAR afii10095
ENCODING 237
SWIDTH 1136 0
DWIDTH 30 0
BBX 30 25 0 -5
BITMAP
00000000
00000000
00000000
00000000
00000000
00000000
00000000
00000000
033FFC00
03F81F80
038003C0
030003E0
000001E0
001FFFE0
000001E0
000001E0
000003C0
078007C0
07E01F80
00FFFF00
00000000
00000000
00000000
00000000
00000000
ENDCHAR

STARTCHAR afii10096
ENCODING 238
SWIDTH 1136 0
DWIDTH 30 0
BBX 30 25 0 -5
BITMAP
00000000
00000000
00000000
00000000
00000000
00000000
00000000
00000000
FF83FF80
3E1FC7E0
3E3F01F0
3E7E00F8
3E7E00FC
3E7C007C
3FFC007C
3E7C007C
3E7E00FC
3E3F01F8
3E0FC7E0
FF83FF80
00000000
00000000
00000000
00000000
00000000
ENDCHAR

STARTCHAR afii10097
ENCODING 239
SWIDTH 1136 0
DWIDTH 30 0
BBX 30 25 0 -5
BITMAP
00000000
00000000
00000000
00000000
00000000
00000000
00000000
00000000
01FFFFE0
07E01F00
0FC01F00
0FC01F00
07C01F00
03F01F00
003FFF00
01F81F00
07E01F00
0FC01F00
1FC01F00
7F80FFE0
00000000
00000000
00000000
00000000
00000000
ENDCHAR

STARTCHAR afii61352
ENCODING 240
SWIDTH 1136 0
DWIDTH 30 0
BBX 30 25 0 -5
BITMAP
00000000
00000000
00000000
00000000
FC0FF800
3E07E000
3F03E3F0
3F83E738
3F83E738
3EC3E738
3E63E738
3E63E738
3E33E3F0
3E1BE000
3E1FE000
3E0FE3F0
3E07E000
3E03E000
3E03E000
FFC1E000
00000000
00000000
00000000
00000000
00000000
ENDCHAR

STARTCHAR afii10071
ENCODING 241
SWIDTH 1136 0
DWIDTH 30 0
BBX 30 25 0 -5
BITMAP
00000000
00000000
01F01F00
01F01F00
01F01F00
00000000
00000000
00000000
003FFC00
01F03F00
07C00F80
07C00F80
0F0003C0
0FFFFFC0
0F000000
0F000000
07C00000
07C003C0
03F00FC0
003FFF00
00000000
00000000
00000000
00000000
00000000
ENDCHAR

STARTCHAR afii10099
ENCODING 242
SWIDTH 1136 0
DWIDTH 30 0
BBX 30 25 0 -5
BITMAP
00000000
00000000
00000000
00000000
00000000
1FF00000
01F00000
3FFFF000
01F00000
01F3FE00
01FE3F00
01F80F80
01F007C0
01F007C0
01F007C0
01F007C0
01F007C0
01F007C0
01F007C0
1FFE07C0
000007C0
000007C0
00000F80
00003F00
00FFFE00
ENDCHAR

STARTCHAR afii10100
ENCODING 243
SWIDTH 1136 0
DWIDTH 30 0
BBX 30 25 0 -5
BITMAP
00000000
00000000
00000000
00000000
0003F000
000FC000
003E0000
00000000
00000000
7FFFFFE0
00F803E0
00F803E0
00F803E0
00F803E0
00F803E0
00F80000
00F80000
00F80000
00F80000
7FFFE000
00000000
00000000
00000000
00000000
00000000
ENDCHAR

STARTCHAR afii10101
ENCODING 244
SWIDTH 1136 0
DWIDTH 30 0
BBX 30 25 0 -5
BITMAP
00000000
00000000
00000000
00000000
00000000
00000000
00000000
00000000
007FF980
03E03F80
07800380
0F800180
0F000180
0F000000
0FFFF000
0F000000
07800000
07C00780
03F01F80
01FFFE00
00000000
00000000
00000000
00000000
00000000
ENDCHAR

STARTCHAR afii10102
ENCODING 245
SWIDTH 1136 0
DWIDTH 30 0
BBX 30 25 0 -5
BITMAP
00000000
00000000
00000000
00000000
00000000
00000000
00000000
00000000
01FFCF80
07E07F80
0FC00F80
0FC00380
07E00000
01FFFE00
00007F80
00000FC0
0F0003C0
0FC00FC0
0FF03F80
0FDFFE00
00000000
00000000
00000000
00000000
00000000
ENDCHAR

STARTCHAR afii10103
ENCODING 246
SWIDTH 1136 0
DWIDTH 30 0
BBX 30 25 0 -5
BITMAP
00000000
00000000
00000000
000F8000
000F8000
000F8000
00000000
00000000
07FF8000
000F8000
000F8000
000F8000
000F8000
000F8000
000F8000
000F8000
000F8000
000F8000
000F8000
07FFFF00
00000000
00000000
00000000
00000000
00000000
ENDCHAR

STARTCHAR afii10104
ENCODING 247
SWIDTH 1136 0
DWIDTH 30 0
BBX 30 25 0 -5
BITMAP
00000000
00000000
00000000
03E1F000
03E1F000
03E1F000
00000000
00000000
07FF8000
000F8000
000F8000
000F8000
000F8000
000F8000
000F8000
000F8000
000F8000
000F8000
07FFFF80
07FFFF80
00000000
00000000
00000000
00000000
00000000
ENDCHAR

STARTCHAR afii10105
ENCODING 248
SWIDTH 1136 0
DWIDTH 30 0
BBX 30 25 0 -5
BITMAP
00000000
00000000
0003E000
0003E000
0003E000
00000000
00000000
00000000
00FFE000
0003E000
0003E000
0003E000
0003E000
0003E000
0003E000
0003E000
0003E000
0003E000
0003E000
0003E000
0003E000
0003C000
0007C000
0FFF0000
00000000
ENDCHAR

STARTCHAR afii10106
ENCODING 249
SWIDTH 1136 0
DWIDTH 30 0
BBX 30 25 0 -5
BITMAP
00000000
00000000
00000000
00000000
00000000
00000000
00000000
00000000
0FFFFF80
007FF800
007CF800
007CF800
007CF800
007CF800
007CFFF0
007CF8F8
00FCF87C
F8F8F87C
F9F8F8F8
FFE3FFE0
00000000
00000000
00000000
00000000
00000000
ENDCHAR

STARTCHAR afii10107
ENCODING 250
SWIDTH 1136 0
DWIDTH 30 0
BBX 30 25 0 -5
BITMAP
00000000
00000000
00000000
00000000
00000000
00000000
00000000
00000000
FF9FF800
3E07C000
3E07C000
3E07C000
3E07C000
3FFFFFC0
3E07C0F0
3E07C078
3E07C03C
3E07C03C
3E07C078
FF9FFFF0
00000000
00000000
00000000
00000000
00000000
ENDCHAR

STARTCHAR afii10108
ENCODING 251
SWIDTH 1136 0
DWIDTH 30 0
BBX 30 25 0 -5
BITMAP
00000000
00000000
00000000
00000000
3FE00000
03E00000
7FFFF000
03E00000
03E7FE00
03FC1F00
03F00F80
03E00F80
03E00F80
03E00F80
03E00F80
03E00F80
03E00F80
03E00F80
03E00F80
3FFC3FF8
00000000
00000000
00000000
00000000
00000000
ENDCHAR

STARTCHAR afii10109
ENCODING 252
SWIDTH 1136 0
DWIDTH 30 0
BBX 30 25 0 -5
BITMAP
00000000
00000000
00000000
0001F800
0007E000
003F0000
00000000
00000000
7FFC3FE0
07C0FDE0
07C1F1E0
07C7E000
07FF0000
07FFC000
07C3F000
07C0F800
07C07E00
07C01F00
07C00FC0
7FFC0FF8
00000000
00000000
00000000
00000000
00000000
ENDCHAR

STARTCHAR section
ENCODING 253
SWIDTH 1136 0
DWIDTH 30 0
BBX 30 25 0 -5
BITMAP
00000000
00000000
00000000
00000000
00000000
007FFFC0
01F007C0
01E007C0
01F007C0
07FE0000
1E1FE000
1C00FC00
1F003F00
07E007C0
01F800E0
007F8078
0007E038
00007838
00003EF8
03E00FE0
03E00780
03E00F00
03FFFE00
00000000
00000000
ENDCHAR

STARTCHAR afii10110
ENCODING 254
SWIDTH 1136 0
DWIDTH 30 0
BBX 30 25 0 -5
BITMAP
00000000
00000000
00000000
01C00C00
03E03F00
01F07E00
007FF000
00000000
FFE03FFC
3E0003F0
1F0007C0
0F800F80
07C01F00
03F03E00
01F87C00
00FDF800
003FE000
001FC000
000F8000
3E1F0000
3E7E0000
3FFC0000
0FE00000
00000000
00000000
ENDCHAR

STARTCHAR afii10193
ENCODING 255
SWIDTH 1136 0
DWIDTH 30 0
BBX 30 25 0 -5
BITMAP
00000000
00000000
00000000
00000000
00000000
00000000
00000000
00000000
3FF87FE0
07C01F00
07C01F00
07C01F00
07C01F00
07C01F00
07C01F00
07C01F00
07C01F00
07C01F00
07C01F00
3FFFFFE0
000F8000
000F8000
000F8000
000F8000
00000000
ENDCHAR
ENDFONT
